<svg width="1172" height="954" viewBox="0 0 1172 954" fill="none" xmlns="http://www.w3.org/2000/svg">
<path d="M1122.5 477C1122.5 608.523 1049.91 727.636 932.47 813.887C815.028 900.138 652.759 953.5 473.5 953.5C294.241 953.5 131.972 900.138 14.5301 813.887C-102.912 727.636 -175.5 608.523 -175.5 477C-175.5 345.477 -102.912 226.364 14.5301 140.113C131.972 53.8624 294.241 0.5 473.5 0.5C652.759 0.5 815.028 53.8624 932.47 140.113C1049.91 226.364 1122.5 345.477 1122.5 477Z" fill="white" stroke="black"/>
<path d="M880.158 823.656C860.881 812.028 860.847 803.982 863.239 801.413L964.268 839.461C967.281 840.191 973.901 840.221 976.275 834.498C979.244 827.345 989.925 823.522 994.187 822.156C997.596 821.062 1005.03 822.283 1008.71 823.462C1010.3 824.648 1015.31 828.172 1017.82 830.956C1022.49 836.137 1022.62 840.628 1023.24 843.928C1019.71 866.128 1011.89 864.421 1005.32 869.313C1000.05 873.226 989.633 868.75 984.249 865.971C985.027 866.834 980.534 865.333 968.376 854.804C957.296 845.208 959.816 850.191 952.334 849.728C946.515 849.368 942.768 855.658 941.726 858.854C929.235 851.967 899.436 835.285 880.158 823.656Z" fill="#443F3F" fill-opacity="0.81" stroke="black"/>
<path d="M941.304 865.35C940.95 865.654 933.125 860.632 929.256 858.082C930.82 861.848 933.298 870.398 930.696 874.476C927.444 879.574 916.089 880.909 910.595 894.835C905.1 908.762 916.496 919.657 918.885 921.436C921.273 923.214 933.143 926.802 940.783 924.83C948.423 922.857 957.474 912.004 958.337 905.128C959.201 898.252 957.181 890.79 954.403 888.58C952.181 886.812 947.718 877.976 945.765 873.778C944.425 870.842 941.658 865.046 941.304 865.35Z" fill="#443F3F" fill-opacity="0.81" stroke="black"/>
<path d="M917.369 816.177L904.841 764.857C906.609 763.336 910.53 765.073 912.27 766.132C918.979 770.787 926.618 787.265 929.599 794.923L943.444 825.944L917.369 816.177Z" fill="#443F3F" fill-opacity="0.81" stroke="black"/>
<ellipse cx="16.9088" cy="16.8586" rx="16.9088" ry="16.8586" transform="matrix(0.758079 -0.652163 0.669693 0.742638 908.616 899.604)" fill="white"/>
<ellipse cx="16.9088" cy="16.8586" rx="16.9088" ry="16.8586" transform="matrix(0.758079 -0.652163 0.669693 0.742638 974.033 843.327)" fill="white"/>
<path d="M1052 528.453V413.965L1089.83 398H1171.09V528.453H1052Z" fill="white"/>
<path d="M1052 413.965V528.453H1171.09V398H1089.83M1052 413.965L1071.61 417.157L1089.83 398M1052 413.965L1089.83 398" stroke="black"/>
<path d="M1072.08 417.157L1089.83 398L1052.93 413.965L1072.08 417.157Z" fill="#443F3F" fill-opacity="0.81" stroke="black"/>
<path d="M839.674 79.5734C847.477 72.0618 857.19 67.4799 867.928 66.6995C873.992 67.9583 886.308 66.5802 890.106 66.5802H906.521C911.112 66.5802 915.331 73.0386 919.836 74.5693C932.977 79.0343 943.965 84.287 954.947 92.2154C963.673 98.5155 976.512 103.382 982.853 112.056C994.521 128.018 988.348 154.525 974.645 167.716C962.613 179.299 940.672 184.76 924.487 187.557C905.522 190.834 888.752 193 869.404 193C850.574 193 799 186.099 799 160.693C799 151.923 804.157 144.515 808.849 137.34C813.536 130.175 812.575 120.387 814.139 112.407C816.468 100.524 831.005 87.9181 839.674 79.5734Z" fill="#443F3F" fill-opacity="0.81"/>
<path d="M871.228 66.5802C859.181 66.5802 848.268 71.2997 839.674 79.5734C831.005 87.9181 816.468 100.524 814.139 112.407C812.575 120.387 813.536 130.175 808.849 137.34C804.157 144.515 799 151.923 799 160.693C799 186.099 850.574 193 869.404 193C888.752 193 905.522 190.834 924.487 187.557C940.672 184.76 962.613 179.299 974.645 167.716C988.348 154.525 994.521 128.018 982.853 112.056C976.512 103.382 963.673 98.5155 954.947 92.2154C943.965 84.287 932.977 79.0343 919.836 74.5693C915.331 73.0386 911.112 66.5802 906.521 66.5802C901.049 66.5802 895.577 66.5802 890.106 66.5802C885.273 66.5802 866.642 68.8124 864.662 65" stroke="black" stroke-linecap="round"/>
</svg>
